<svg xmlns="http://www.w3.org/2000/svg" xmlns:xlink="http://www.w3.org/1999/xlink" width="2000" zoomAndPan="magnify" viewBox="0 0 1500 1499.999933" height="2000" preserveAspectRatio="xMidYMid meet" version="1.0"><defs><g/><clipPath id="1418e263ad"><path d="M 510.070312 692.445312 L 1243.8125 692.445312 L 1243.8125 807.554688 L 510.070312 807.554688 Z M 510.070312 692.445312 " clip-rule="nonzero"/></clipPath><clipPath id="c13eb8847e"><path d="M 0.0703125 0.445312 L 733.8125 0.445312 L 733.8125 115.554688 L 0.0703125 115.554688 Z M 0.0703125 0.445312 " clip-rule="nonzero"/></clipPath><clipPath id="5f2925ab75"><rect x="0" width="734" y="0" height="116"/></clipPath><clipPath id="b351947a7b"><path d="M 1243.480469 692.445312 L 1448.519531 692.445312 L 1448.519531 807.558594 L 1243.480469 807.558594 Z M 1243.480469 692.445312 " clip-rule="nonzero"/></clipPath><clipPath id="474a3bd49f"><path d="M 1448.519531 750 L 1243.8125 807.558594 L 1243.8125 692.445312 Z M 1448.519531 750 " clip-rule="nonzero"/></clipPath><clipPath id="133fda90f1"><path d="M 0.679688 0.445312 L 205.519531 0.445312 L 205.519531 115.558594 L 0.679688 115.558594 Z M 0.679688 0.445312 " clip-rule="nonzero"/></clipPath><clipPath id="1a740e6f6d"><path d="M 205.519531 58 L 0.8125 115.558594 L 0.8125 0.445312 Z M 205.519531 58 " clip-rule="nonzero"/></clipPath><clipPath id="8eeb62f617"><rect x="0" width="206" y="0" height="116"/></clipPath><clipPath id="f61fc2865a"><path d="M 359.320312 807.554688 L 735.96875 807.554688 L 735.96875 905.644531 L 359.320312 905.644531 Z M 359.320312 807.554688 " clip-rule="nonzero"/></clipPath><clipPath id="077af53094"><path d="M 453.46875 807.554688 L 735.925781 807.554688 L 641.773438 905.644531 L 359.320312 905.644531 Z M 453.46875 807.554688 " clip-rule="nonzero"/></clipPath><clipPath id="132648aabb"><path d="M 0.320312 0.554688 L 376.96875 0.554688 L 376.96875 98.644531 L 0.320312 98.644531 Z M 0.320312 0.554688 " clip-rule="nonzero"/></clipPath><clipPath id="c8c236c9a7"><path d="M 94.46875 0.554688 L 376.925781 0.554688 L 282.773438 98.644531 L 0.320312 98.644531 Z M 94.46875 0.554688 " clip-rule="nonzero"/></clipPath><clipPath id="5bf04a6fbe"><rect x="0" width="377" y="0" height="99"/></clipPath><clipPath id="93f438d47a"><path d="M 359.320312 594.355469 L 735.96875 594.355469 L 735.96875 692.445312 L 359.320312 692.445312 Z M 359.320312 594.355469 " clip-rule="nonzero"/></clipPath><clipPath id="2be7ee13a9"><path d="M 641.773438 594.355469 L 359.320312 594.355469 L 453.46875 692.445312 L 735.925781 692.445312 Z M 641.773438 594.355469 " clip-rule="nonzero"/></clipPath><clipPath id="650d300f04"><path d="M 0.320312 0.355469 L 376.96875 0.355469 L 376.96875 98.445312 L 0.320312 98.445312 Z M 0.320312 0.355469 " clip-rule="nonzero"/></clipPath><clipPath id="993ae18a33"><path d="M 282.773438 0.355469 L 0.320312 0.355469 L 94.46875 98.445312 L 376.925781 98.445312 Z M 282.773438 0.355469 " clip-rule="nonzero"/></clipPath><clipPath id="7ad6ce7ad0"><rect x="0" width="377" y="0" height="99"/></clipPath><clipPath id="e8b1576df4"><path d="M 36.085938 701.960938 L 510.445312 701.960938 L 510.445312 798.035156 L 36.085938 798.035156 Z M 36.085938 701.960938 " clip-rule="nonzero"/></clipPath><clipPath id="212ed312bf"><path d="M 36.085938 750 L 510.078125 701.960938 L 510.078125 798.035156 Z M 36.085938 750 " clip-rule="nonzero"/></clipPath><clipPath id="bcf7a73f0f"><path d="M 0.0859375 0.960938 L 474.238281 0.960938 L 474.238281 97.035156 L 0.0859375 97.035156 Z M 0.0859375 0.960938 " clip-rule="nonzero"/></clipPath><clipPath id="50e304bab8"><path d="M 0.0859375 49 L 474.078125 0.960938 L 474.078125 97.035156 Z M 0.0859375 49 " clip-rule="nonzero"/></clipPath><clipPath id="0352af9843"><rect x="0" width="475" y="0" height="98"/></clipPath><clipPath id="e115f99de0"><path d="M 122.570312 719.753906 L 510.285156 719.753906 L 510.285156 780.238281 L 122.570312 780.238281 Z M 122.570312 719.753906 " clip-rule="nonzero"/></clipPath><clipPath id="e7537ba2ee"><path d="M 122.570312 749.996094 L 510.078125 719.753906 L 510.078125 780.238281 Z M 122.570312 749.996094 " clip-rule="nonzero"/></clipPath><clipPath id="0cc1bc14d5"><path d="M 0.570312 0.753906 L 388.238281 0.753906 L 388.238281 61.238281 L 0.570312 61.238281 Z M 0.570312 0.753906 " clip-rule="nonzero"/></clipPath><clipPath id="b20e64a4d8"><path d="M 0.570312 30.996094 L 388.078125 0.753906 L 388.078125 61.238281 Z M 0.570312 30.996094 " clip-rule="nonzero"/></clipPath><clipPath id="16c34a8936"><rect x="0" width="389" y="0" height="62"/></clipPath></defs><g clip-path="url(#1418e263ad)"><g transform="matrix(1, 0, 0, 1, 510, 692)"><g clip-path="url(#5f2925ab75)"><g clip-path="url(#c13eb8847e)"><path fill="#b4b4b4" d="M 733.8125 0.445312 L 733.8125 115.554688 L -0.015625 115.554688 L -0.015625 0.445312 Z M 733.8125 0.445312 " fill-opacity="1" fill-rule="nonzero"/></g></g></g></g><g clip-path="url(#b351947a7b)"><g clip-path="url(#474a3bd49f)"><g transform="matrix(1, 0, 0, 1, 1243, 692)"><g clip-path="url(#8eeb62f617)"><g clip-path="url(#133fda90f1)"><g clip-path="url(#1a740e6f6d)"><path fill="#162133" d="M 205.519531 0.445312 L 205.519531 115.558594 L 0.929688 115.558594 L 0.929688 0.445312 Z M 205.519531 0.445312 " fill-opacity="1" fill-rule="nonzero"/></g></g></g></g></g></g><g clip-path="url(#f61fc2865a)"><g clip-path="url(#077af53094)"><g transform="matrix(1, 0, 0, 1, 359, 807)"><g clip-path="url(#5bf04a6fbe)"><g clip-path="url(#132648aabb)"><g clip-path="url(#c8c236c9a7)"><path fill="#162133" d="M 0.320312 0.554688 L 376.96875 0.554688 L 376.96875 98.644531 L 0.320312 98.644531 Z M 0.320312 0.554688 " fill-opacity="1" fill-rule="nonzero"/></g></g></g></g></g></g><g clip-path="url(#93f438d47a)"><g clip-path="url(#2be7ee13a9)"><g transform="matrix(1, 0, 0, 1, 359, 594)"><g clip-path="url(#7ad6ce7ad0)"><g clip-path="url(#650d300f04)"><g clip-path="url(#993ae18a33)"><path fill="#162133" d="M 0.320312 0.355469 L 376.96875 0.355469 L 376.96875 98.445312 L 0.320312 98.445312 Z M 0.320312 0.355469 " fill-opacity="1" fill-rule="nonzero"/></g></g></g></g></g></g><g clip-path="url(#e8b1576df4)"><g clip-path="url(#212ed312bf)"><g transform="matrix(1, 0, 0, 1, 36, 701)"><g clip-path="url(#0352af9843)"><g clip-path="url(#bcf7a73f0f)"><g clip-path="url(#50e304bab8)"><path fill="#ff3131" d="M 0.0859375 97.035156 L 0.0859375 0.960938 L 474.070312 0.960938 L 474.070312 97.035156 Z M 0.0859375 97.035156 " fill-opacity="1" fill-rule="nonzero"/></g></g></g></g></g></g><g clip-path="url(#e115f99de0)"><g clip-path="url(#e7537ba2ee)"><g transform="matrix(1, 0, 0, 1, 122, 719)"><g clip-path="url(#16c34a8936)"><g clip-path="url(#0cc1bc14d5)"><g clip-path="url(#b20e64a4d8)"><path fill="#ff751f" d="M 0.570312 61.238281 L 0.570312 0.753906 L 388.050781 0.753906 L 388.050781 61.238281 Z M 0.570312 61.238281 " fill-opacity="1" fill-rule="nonzero"/></g></g></g></g></g></g><g fill="#162133" fill-opacity="1"><g transform="translate(599.917062, 785.11544)"><g><path d="M 24.109375 -76.140625 L 24.109375 -2.578125 C 24.109375 -0.859375 23.253906 0 21.546875 0 L 11.140625 0 C 9.421875 0 8.5625 -0.859375 8.5625 -2.578125 L 8.5625 -76.140625 C 8.5625 -77.859375 9.421875 -78.71875 11.140625 -78.71875 L 21.546875 -78.71875 C 23.253906 -78.71875 24.109375 -77.859375 24.109375 -76.140625 Z M 24.109375 -76.140625 "/></g></g></g><g fill="#162133" fill-opacity="1"><g transform="translate(649.250248, 785.11544)"><g><path d="M 39.90625 0 L 26.9375 0 C 20.488281 0 15.507812 -1.710938 12 -5.140625 C 8.488281 -8.566406 6.734375 -13.503906 6.734375 -19.953125 L 6.734375 -58.765625 C 6.734375 -65.210938 8.488281 -70.148438 12 -73.578125 C 15.507812 -77.003906 20.488281 -78.71875 26.9375 -78.71875 L 39.90625 -78.71875 C 46.269531 -78.71875 51.207031 -76.984375 54.71875 -73.515625 C 58.226562 -70.046875 59.984375 -65.128906 59.984375 -58.765625 L 59.984375 -55.09375 C 59.984375 -53.289062 59.128906 -52.390625 57.421875 -52.390625 L 47.015625 -52.390625 C 45.296875 -52.390625 44.4375 -53.289062 44.4375 -55.09375 L 44.4375 -58.03125 C 44.4375 -60.644531 43.90625 -62.5 42.84375 -63.59375 C 41.78125 -64.695312 39.945312 -65.25 37.34375 -65.25 L 29.375 -65.25 C 26.851562 -65.25 25.039062 -64.695312 23.9375 -63.59375 C 22.832031 -62.5 22.28125 -60.644531 22.28125 -58.03125 L 22.28125 -20.6875 C 22.28125 -18.070312 22.832031 -16.210938 23.9375 -15.109375 C 25.039062 -14.015625 26.851562 -13.46875 29.375 -13.46875 L 37.34375 -13.46875 C 39.945312 -13.46875 41.78125 -14.015625 42.84375 -15.109375 C 43.90625 -16.210938 44.4375 -18.070312 44.4375 -20.6875 L 44.4375 -28.40625 C 44.4375 -29.300781 43.988281 -29.75 43.09375 -29.75 L 35.75 -29.75 C 34.03125 -29.75 33.171875 -30.601562 33.171875 -32.3125 L 33.171875 -40.640625 C 33.171875 -42.359375 34.03125 -43.21875 35.75 -43.21875 L 57.171875 -43.21875 C 59.046875 -43.21875 59.984375 -42.28125 59.984375 -40.40625 L 59.984375 -19.953125 C 59.984375 -13.585938 58.226562 -8.671875 54.71875 -5.203125 C 51.207031 -1.734375 46.269531 0 39.90625 0 Z M 39.90625 0 "/></g></g></g><g fill="#162133" fill-opacity="1"><g transform="translate(732.614534, 785.11544)"><g><path d="M 20.6875 0 L 10.53125 0 C 8.8125 0 7.953125 -0.859375 7.953125 -2.578125 L 7.953125 -76.140625 C 7.953125 -77.859375 8.8125 -78.71875 10.53125 -78.71875 L 19.703125 -78.71875 C 21.421875 -78.71875 22.566406 -78.144531 23.140625 -77 L 47.859375 -30.609375 L 48.359375 -30.609375 L 48.359375 -76.140625 C 48.359375 -77.859375 49.210938 -78.71875 50.921875 -78.71875 L 61.09375 -78.71875 C 62.800781 -78.71875 63.65625 -77.859375 63.65625 -76.140625 L 63.65625 -2.578125 C 63.65625 -0.859375 62.800781 0 61.09375 0 L 52.15625 0 C 50.351562 0 49.046875 -0.816406 48.234375 -2.453125 L 23.75 -47.984375 L 23.265625 -47.984375 L 23.265625 -2.578125 C 23.265625 -0.859375 22.40625 0 20.6875 0 Z M 20.6875 0 "/></g></g></g><g fill="#162133" fill-opacity="1"><g transform="translate(820.875379, 785.11544)"><g><path d="M 24.109375 -76.140625 L 24.109375 -2.578125 C 24.109375 -0.859375 23.253906 0 21.546875 0 L 11.140625 0 C 9.421875 0 8.5625 -0.859375 8.5625 -2.578125 L 8.5625 -76.140625 C 8.5625 -77.859375 9.421875 -78.71875 11.140625 -78.71875 L 21.546875 -78.71875 C 23.253906 -78.71875 24.109375 -77.859375 24.109375 -76.140625 Z M 24.109375 -76.140625 "/></g></g></g><g fill="#162133" fill-opacity="1"><g transform="translate(870.208566, 785.11544)"><g><path d="M 32.3125 0 L 22.03125 0 C 20.238281 0 19.34375 -0.859375 19.34375 -2.578125 L 19.34375 -63.90625 C 19.34375 -64.800781 18.894531 -65.25 18 -65.25 L 4.046875 -65.25 C 2.328125 -65.25 1.46875 -66.109375 1.46875 -67.828125 L 1.46875 -76.140625 C 1.46875 -77.859375 2.328125 -78.71875 4.046875 -78.71875 L 50.3125 -78.71875 C 52.03125 -78.71875 52.890625 -77.859375 52.890625 -76.140625 L 52.890625 -67.828125 C 52.890625 -66.109375 52.03125 -65.25 50.3125 -65.25 L 36.359375 -65.25 C 35.378906 -65.25 34.890625 -64.800781 34.890625 -63.90625 L 34.890625 -2.578125 C 34.890625 -0.859375 34.03125 0 32.3125 0 Z M 32.3125 0 "/></g></g></g><g fill="#162133" fill-opacity="1"><g transform="translate(941.086604, 785.11544)"><g><path d="M 24.109375 -76.140625 L 24.109375 -2.578125 C 24.109375 -0.859375 23.253906 0 21.546875 0 L 11.140625 0 C 9.421875 0 8.5625 -0.859375 8.5625 -2.578125 L 8.5625 -76.140625 C 8.5625 -77.859375 9.421875 -78.71875 11.140625 -78.71875 L 21.546875 -78.71875 C 23.253906 -78.71875 24.109375 -77.859375 24.109375 -76.140625 Z M 24.109375 -76.140625 "/></g></g></g><g fill="#162133" fill-opacity="1"><g transform="translate(990.419791, 785.11544)"><g><path d="M 29.375 -13.46875 L 38.078125 -13.46875 C 40.679688 -13.46875 42.535156 -14.015625 43.640625 -15.109375 C 44.742188 -16.210938 45.296875 -18.070312 45.296875 -20.6875 L 45.296875 -58.03125 C 45.296875 -60.644531 44.742188 -62.5 43.640625 -63.59375 C 42.535156 -64.695312 40.679688 -65.25 38.078125 -65.25 L 29.375 -65.25 C 26.769531 -65.25 24.9375 -64.695312 23.875 -63.59375 C 22.8125 -62.5 22.28125 -60.644531 22.28125 -58.03125 L 22.28125 -20.6875 C 22.28125 -18.070312 22.8125 -16.210938 23.875 -15.109375 C 24.9375 -14.015625 26.769531 -13.46875 29.375 -13.46875 Z M 40.640625 0 L 26.9375 0 C 20.488281 0 15.507812 -1.710938 12 -5.140625 C 8.488281 -8.566406 6.734375 -13.503906 6.734375 -19.953125 L 6.734375 -58.765625 C 6.734375 -65.210938 8.488281 -70.148438 12 -73.578125 C 15.507812 -77.003906 20.488281 -78.71875 26.9375 -78.71875 L 40.640625 -78.71875 C 47.085938 -78.71875 52.066406 -77.003906 55.578125 -73.578125 C 59.085938 -70.148438 60.84375 -65.210938 60.84375 -58.765625 L 60.84375 -19.953125 C 60.84375 -13.503906 59.085938 -8.566406 55.578125 -5.140625 C 52.066406 -1.710938 47.085938 0 40.640625 0 Z M 40.640625 0 "/></g></g></g><g fill="#162133" fill-opacity="1"><g transform="translate(1074.640975, 785.11544)"><g><path d="M 20.6875 0 L 10.53125 0 C 8.8125 0 7.953125 -0.859375 7.953125 -2.578125 L 7.953125 -76.140625 C 7.953125 -77.859375 8.8125 -78.71875 10.53125 -78.71875 L 19.703125 -78.71875 C 21.421875 -78.71875 22.566406 -78.144531 23.140625 -77 L 47.859375 -30.609375 L 48.359375 -30.609375 L 48.359375 -76.140625 C 48.359375 -77.859375 49.210938 -78.71875 50.921875 -78.71875 L 61.09375 -78.71875 C 62.800781 -78.71875 63.65625 -77.859375 63.65625 -76.140625 L 63.65625 -2.578125 C 63.65625 -0.859375 62.800781 0 61.09375 0 L 52.15625 0 C 50.351562 0 49.046875 -0.816406 48.234375 -2.453125 L 23.75 -47.984375 L 23.265625 -47.984375 L 23.265625 -2.578125 C 23.265625 -0.859375 22.40625 0 20.6875 0 Z M 20.6875 0 "/></g></g></g></svg>